<?xml version="1.0" standalone="no"?>
<!DOCTYPE svg PUBLIC "-//W3C//DTD SVG 20010904//EN"
 "http://www.w3.org/TR/2001/REC-SVG-20010904/DTD/svg10.dtd">
<svg version="1.0" xmlns="http://www.w3.org/2000/svg"
 width="559.000000pt" height="533.000000pt" viewBox="0 0 559.000000 533.000000"
 preserveAspectRatio="xMidYMid meet">

<g transform="translate(0.000000,533.000000) scale(0.100000,-0.100000)"
fill="#000000" stroke="none">
<path d="M3961 4691 c-12 -10 -21 -23 -21 -30 0 -6 -7 -11 -15 -11 -8 0 -15
-7 -15 -15 0 -13 -106 -15 -848 -17 -779 -3 -850 -4 -865 -20 -9 -9 -17 -28
-17 -42 l0 -26 -393 0 c-456 0 -437 4 -437 -89 0 -55 15 -81 45 -81 9 0 19 -9
22 -20 3 -11 9 -20 14 -20 5 0 9 -40 9 -90 0 -53 -4 -90 -10 -90 -5 0 -10 -11
-10 -25 l0 -25 -248 0 c-236 0 -248 -1 -265 -20 -15 -18 -17 -49 -17 -296 0
-294 0 -293 50 -309 14 -4 28 -13 32 -19 4 -6 8 -297 8 -647 0 -701 -5 -649
61 -649 l29 0 0 -750 0 -749 36 -7 c19 -3 40 -2 45 3 6 6 8 291 7 739 -3 668
-4 732 -20 747 -9 9 -28 17 -42 17 l-26 0 0 685 c0 450 -3 685 -10 685 -5 0
-10 6 -10 14 0 8 -10 18 -22 22 -46 14 -48 22 -48 220 0 179 1 187 22 205 20
18 46 19 455 19 l433 0 0 25 c0 14 5 25 10 25 6 0 10 9 10 20 0 19 7 20 265
20 l265 0 0 25 c0 14 5 25 10 25 6 0 10 9 10 20 0 20 7 20 630 20 413 0 630 3
630 10 0 6 9 10 20 10 16 0 20 7 20 35 l0 36 308 -3 c273 -3 310 -5 325 -20
16 -15 17 -105 17 -1186 0 -1281 -5 -1182 56 -1182 l24 0 -2 -573 -3 -572 -67
-3 c-50 -2 -68 -7 -68 -17 0 -7 -9 -17 -20 -20 -13 -4 -20 -15 -20 -31 l0 -24
-345 0 -346 0 -24 -25 c-14 -13 -25 -33 -25 -45 0 -20 0 -20 -900 -20 -837 0
-901 -1 -920 -17 -11 -10 -20 -30 -20 -45 l0 -28 -170 0 c-98 0 -170 -4 -170
-9 0 -5 -9 -13 -20 -16 -16 -5 -20 -15 -20 -46 0 -21 5 -39 10 -39 6 0 10 5
10 10 0 6 59 10 158 10 198 0 202 1 202 51 l0 39 904 0 c497 0 911 3 920 6 11
4 16 19 16 45 l0 39 368 2 367 3 3 43 3 42 124 0 c136 0 155 4 155 30 0 10 7
20 15 24 8 3 15 12 15 20 0 9 11 16 28 18 31 3 45 44 18 54 -9 3 -16 12 -16
19 0 7 -13 15 -30 18 l-30 6 0 501 0 501 -25 24 c-13 14 -35 25 -49 25 l-26 0
-2 1275 c-3 1121 -5 1277 -18 1285 -23 14 -31 12 -37 -10 -3 -11 -9 -20 -14
-20 -5 0 -9 -5 -9 -11 0 -31 -29 -39 -144 -39 -71 0 -116 4 -116 10 0 6 -7 10
-15 10 -12 0 -15 13 -15 59 0 57 -15 91 -41 91 -5 0 -9 6 -9 14 0 8 -7 16 -15
20 -11 4 -15 20 -15 56 0 71 -39 106 -79 71z m-37 -177 c9 -8 16 -22 16 -30 0
-8 9 -14 19 -14 10 0 21 -7 25 -15 3 -8 12 -15 21 -15 8 0 15 -7 15 -15 0 -8
5 -15 10 -15 15 0 12 -19 -4 -36 -11 -10 -41 -14 -114 -14 -109 0 -132 -5
-132 -26 0 -8 -4 -14 -10 -14 -5 0 -10 -11 -10 -25 l0 -25 -640 -2 c-700 -3
-660 0 -660 -60 l0 -28 -259 0 c-286 0 -291 -1 -291 -61 l0 -29 -176 0 c-139
0 -178 3 -190 14 -11 11 -14 47 -14 160 0 91 4 146 10 146 6 0 10 6 10 14 0 8
7 17 16 20 9 3 146 6 305 6 282 0 289 0 289 20 0 11 5 20 10 20 6 0 10 9 10
20 0 20 7 20 864 20 773 0 866 -2 880 -16z"/>
<path d="M2488 3463 c-9 -2 -20 -13 -23 -24 -4 -10 -11 -19 -16 -19 -5 0 -9
-9 -9 -19 0 -18 -10 -20 -113 -23 -92 -2 -117 -6 -131 -20 -10 -10 -22 -18
-27 -18 -5 0 -9 -11 -9 -25 0 -15 -6 -25 -14 -25 -24 0 -46 -29 -46 -61 l0
-29 -79 0 c-75 0 -79 -1 -115 -34 -20 -19 -36 -39 -36 -45 0 -5 -9 -13 -20
-16 -11 -3 -20 -10 -20 -15 0 -5 -9 -12 -20 -15 -13 -4 -20 -15 -20 -31 0 -14
-6 -24 -14 -24 -32 0 -46 -30 -46 -101 l0 -69 -36 0 c-27 0 -37 -5 -41 -20 -3
-11 -9 -20 -14 -20 -5 0 -9 -47 -9 -104 0 -119 2 -116 -90 -116 -50 0 -60 -3
-65 -20 -3 -11 -13 -20 -21 -20 -12 0 -14 -50 -14 -329 l0 -329 23 -6 c12 -3
32 -6 45 -6 21 0 22 -4 22 -84 0 -88 4 -96 50 -96 10 0 22 -9 25 -20 3 -11 11
-20 16 -20 5 0 9 -5 9 -11 0 -33 28 -39 175 -39 142 0 147 -1 170 -25 14 -13
25 -29 25 -34 0 -6 11 -13 25 -17 14 -3 25 -11 25 -16 0 -12 26 -38 38 -38 5
0 12 -9 15 -20 3 -12 14 -20 25 -20 13 0 22 -9 26 -25 4 -14 11 -25 16 -25 6
0 10 -6 10 -14 0 -20 23 -26 91 -26 33 0 59 -4 59 -10 0 -5 6 -10 14 -10 8 0
17 -12 21 -27 3 -15 12 -31 18 -35 14 -9 778 -11 801 -2 11 4 16 19 16 45 l0
39 124 0 c68 0 131 3 140 6 11 4 16 19 16 45 l0 39 79 0 c104 0 111 3 111 51
l0 39 78 0 c85 0 96 4 106 38 4 12 14 22 22 22 8 0 14 5 14 10 0 6 9 10 19 10
11 0 23 9 27 22 9 30 45 64 77 72 l27 6 0 116 c0 87 -4 119 -14 130 -20 20
-33 18 -61 -10 -19 -19 -25 -36 -27 -88 -3 -57 -5 -63 -25 -66 -13 -2 -23 -8
-23 -13 0 -5 -7 -9 -15 -9 -9 0 -18 -12 -21 -30 -4 -18 -15 -32 -27 -36 -24
-8 -67 -48 -67 -64 0 -5 -7 -10 -15 -10 -8 0 -15 -4 -15 -10 0 -5 -5 -10 -11
-10 -17 0 -49 -40 -49 -62 0 -16 -9 -18 -75 -18 -54 0 -75 -4 -75 -13 0 -7 -9
-19 -20 -27 -11 -8 -20 -22 -20 -32 0 -16 -12 -18 -124 -18 -124 0 -124 0
-130 -25 -4 -14 -11 -25 -16 -25 -6 0 -10 -9 -10 -20 0 -20 -7 -20 -365 -20
-339 0 -366 1 -372 18 -4 9 -15 24 -25 33 -10 9 -18 21 -18 28 0 7 -23 11 -65
11 -53 0 -67 3 -72 18 -4 9 -15 24 -25 33 -10 9 -18 21 -18 26 0 6 -13 13 -30
17 -18 3 -30 12 -30 21 0 8 -4 15 -9 15 -5 0 -13 9 -16 20 -3 11 -15 20 -25
20 -23 0 -30 19 -30 86 0 34 -4 54 -11 54 -7 0 -19 8 -28 19 -9 10 -26 21 -38
25 -21 7 -23 14 -23 67 0 50 -4 64 -24 83 -12 13 -32 26 -42 28 -17 3 -19 14
-22 107 -2 89 -6 107 -22 121 -11 10 -20 22 -20 27 0 6 -13 13 -30 17 l-30 6
0 105 c0 58 -4 105 -9 105 -5 0 -12 9 -16 19 -3 11 -16 21 -28 23 -22 3 -22 6
-25 176 l-2 172 25 0 c14 0 25 5 25 10 0 6 7 10 15 10 8 0 15 5 15 10 0 17 47
60 65 60 8 0 15 7 15 15 0 21 48 65 71 65 14 0 19 7 19 25 0 14 4 25 8 25 12
0 62 44 62 54 0 11 27 36 39 36 6 0 11 9 11 20 0 18 7 20 80 20 74 0 80 2 80
20 0 12 12 32 26 45 25 24 34 25 140 25 l114 0 6 28 c16 62 17 62 351 62 l303
0 0 -31 c0 -46 20 -59 90 -59 45 0 62 -4 66 -15 4 -8 12 -15 20 -15 8 0 14 -7
14 -16 0 -30 27 -44 87 -44 46 0 62 -4 76 -20 9 -11 17 -25 17 -30 0 -6 5 -10
10 -10 6 0 10 -7 10 -15 0 -12 14 -15 65 -15 49 0 67 -4 71 -15 4 -8 12 -15
20 -15 10 0 14 -15 14 -56 0 -50 14 -84 35 -84 12 0 53 -47 59 -68 6 -18 15
-22 47 -22 l39 0 0 -125 c0 -125 0 -125 25 -131 14 -3 25 -10 25 -15 0 -5 5
-9 11 -9 6 0 17 -6 25 -14 11 -12 14 -66 14 -301 l0 -286 38 3 37 3 3 331 c2
305 1 332 -16 351 -9 11 -26 22 -37 24 -17 4 -20 14 -23 67 -2 34 -7 62 -12
62 -6 0 -10 7 -10 15 0 10 -14 17 -40 21 l-40 7 0 68 c0 74 -14 99 -55 99 -27
0 -35 22 -35 94 0 68 -22 86 -107 86 -58 0 -63 2 -63 22 0 12 -12 33 -27 45
-21 18 -38 23 -85 23 -59 0 -88 14 -88 41 0 6 -10 20 -22 30 -18 16 -38 19
-140 19 l-118 0 0 25 c0 14 -8 34 -17 45 -17 19 -28 20 -348 19 -181 -1 -338
-3 -347 -6z m-883 -983 c3 -11 11 -20 16 -20 5 0 9 -27 9 -60 0 -55 2 -60 25
-66 14 -3 25 -11 25 -16 0 -13 26 -38 39 -38 5 0 11 -28 13 -62 3 -57 5 -63
25 -66 15 -2 25 -13 29 -28 3 -13 10 -24 15 -24 5 0 9 -47 9 -105 l0 -105 27
-6 c52 -13 73 -46 73 -113 0 -71 -5 -74 -110 -69 -59 3 -65 5 -68 26 -2 12 -8
22 -14 22 -6 0 -18 8 -27 19 -9 10 -26 21 -38 25 -14 4 -23 15 -23 27 0 10 -4
19 -9 19 -5 0 -13 9 -16 20 -5 15 -15 20 -41 20 l-34 0 0 285 c0 282 0 286 23
310 27 29 44 31 52 5z"/>
<path d="M2572 3181 c-12 -10 -22 -23 -22 -30 0 -6 -7 -11 -15 -11 -8 0 -15
-6 -15 -14 0 -8 -9 -18 -21 -21 -30 -10 -59 -42 -59 -65 0 -11 -6 -20 -13 -20
-20 0 -53 -31 -61 -57 -5 -14 -15 -23 -28 -23 -34 0 -58 -37 -58 -92 0 -26 -4
-48 -10 -48 -5 0 -10 -9 -10 -19 0 -13 -9 -21 -30 -26 -16 -4 -30 -13 -30 -21
0 -8 -4 -14 -10 -14 -6 0 -10 -130 -10 -370 l0 -370 27 -6 c32 -8 70 -43 75
-70 2 -11 13 -20 26 -22 12 -2 22 -8 22 -13 0 -5 7 -9 15 -9 8 0 18 -12 21
-27 9 -38 20 -43 88 -43 47 0 62 -4 77 -22 11 -11 19 -29 19 -38 0 -10 7 -21
16 -24 20 -8 598 -8 618 0 9 3 16 15 16 25 0 10 4 19 9 19 5 0 13 9 16 20 5
17 15 20 71 20 57 0 64 2 64 20 0 11 7 20 15 20 9 0 15 9 15 25 0 25 1 25 80
25 48 0 80 4 80 10 0 18 65 77 92 83 17 5 28 16 32 33 9 33 27 51 60 60 24 6
26 10 26 63 0 45 4 60 20 71 11 8 20 20 20 26 0 7 11 15 25 18 l25 6 0 191 c0
186 -1 190 -23 213 -13 13 -33 27 -45 30 -19 7 -22 15 -22 67 0 44 -4 59 -14
59 -7 0 -16 9 -19 20 -3 12 -14 20 -25 20 -12 0 -23 9 -28 22 -10 33 -50 68
-79 68 -18 0 -25 5 -25 20 0 26 -30 60 -52 60 -10 0 -18 7 -18 15 0 8 -4 15
-10 15 -5 0 -10 5 -10 11 0 29 -43 49 -105 49 -60 0 -63 1 -70 27 -3 15 -16
35 -27 45 -19 17 -47 18 -353 18 -310 0 -333 -1 -353 -19z m611 -91 c9 -11 17
-25 17 -30 0 -6 5 -10 10 -10 6 0 10 -7 10 -15 0 -12 14 -15 65 -15 49 0 67
-4 71 -15 4 -8 12 -15 20 -15 8 0 14 -5 14 -11 0 -28 30 -39 104 -39 l76 0 0
-76 c0 -81 7 -96 53 -108 15 -3 27 -13 27 -21 0 -8 4 -15 10 -15 5 0 10 -28
12 -62 3 -56 5 -63 25 -66 12 -2 25 -12 28 -23 4 -10 13 -19 21 -19 11 0 14
-20 14 -104 l0 -104 -30 -7 c-16 -4 -30 -11 -30 -17 0 -5 -7 -16 -15 -24 -10
-10 -15 -35 -15 -75 0 -56 -1 -59 -27 -65 -30 -8 -53 -26 -53 -43 0 -6 -4 -11
-10 -11 -5 0 -10 -6 -10 -14 0 -8 -10 -18 -22 -22 -26 -8 -48 -28 -48 -43 0
-6 -4 -11 -10 -11 -5 0 -10 -7 -10 -15 0 -9 -12 -18 -30 -21 -16 -4 -32 -15
-35 -25 -4 -11 -11 -19 -16 -19 -5 0 -9 -11 -9 -25 l0 -25 -118 0 c-106 0
-119 -2 -132 -20 -8 -11 -20 -20 -27 -20 -6 0 -13 -10 -15 -22 -3 -23 -4 -23
-203 -26 -215 -3 -245 0 -245 24 0 8 -11 26 -24 39 -20 20 -36 25 -92 27 -58
3 -69 6 -72 22 -5 24 -42 62 -70 70 -12 4 -23 19 -27 36 -4 17 -13 30 -21 30
-8 0 -14 4 -14 9 0 5 -10 11 -22 13 l-23 3 -3 286 c-2 267 -1 287 17 307 10
12 27 22 39 22 23 0 32 24 32 88 0 23 5 42 10 42 6 0 10 6 10 14 0 8 10 18 22
22 28 9 43 24 52 52 4 12 12 22 17 22 5 0 32 23 59 50 27 28 59 50 70 50 15 0
20 7 20 24 0 15 7 27 19 31 11 3 22 12 25 20 4 13 44 15 248 15 232 0 244 -1
261 -20z"/>
<path d="M1106 535 c-3 -8 -12 -15 -21 -15 -13 0 -15 -18 -15 -115 l0 -114 33
-6 c17 -3 79 -5 137 -3 114 3 120 7 106 64 -6 23 -10 24 -80 24 -106 0 -106 0
-106 79 0 54 -4 70 -20 84 -25 21 -26 21 -34 2z"/>
</g>
</svg>
