<?xml version="1.0" standalone="no"?>
<!DOCTYPE svg PUBLIC "-//W3C//DTD SVG 20010904//EN"
 "http://www.w3.org/TR/2001/REC-SVG-20010904/DTD/svg10.dtd">
<svg version="1.0" xmlns="http://www.w3.org/2000/svg"
 width="1065.000000pt" height="1136.000000pt" viewBox="0 0 1065.000000 1136.000000"
 preserveAspectRatio="xMidYMid meet">

<g transform="translate(0.000000,1136.000000) scale(0.100000,-0.100000)"
fill="#000000" stroke="none">
<path d="M2960 10270 c0 -5 -8 -10 -19 -10 -10 0 -24 -7 -31 -15 -7 -8 -27
-15 -45 -15 -20 0 -35 -6 -39 -15 -3 -8 -14 -15 -25 -15 -11 0 -23 -4 -26 -10
-3 -5 -22 -10 -41 -10 -22 0 -37 -6 -40 -15 -4 -9 -19 -15 -39 -15 -18 0 -38
-7 -45 -15 -7 -8 -28 -15 -46 -15 -19 0 -34 -4 -34 -10 0 -5 -16 -10 -35 -10
-22 0 -38 -6 -41 -15 -4 -8 -16 -15 -29 -15 -13 0 -25 -7 -29 -15 -3 -9 -18
-15 -36 -15 -17 0 -38 -7 -46 -15 -9 -8 -28 -15 -44 -15 -16 0 -32 -4 -35 -10
-3 -5 -21 -10 -40 -10 -20 0 -35 -6 -39 -15 -3 -8 -14 -15 -24 -15 -11 0 -25
-7 -32 -15 -7 -8 -28 -15 -46 -15 -19 0 -34 -4 -34 -10 0 -5 -15 -10 -34 -10
-18 0 -39 -7 -46 -15 -7 -8 -27 -15 -45 -15 -20 0 -35 -6 -39 -15 -3 -8 -14
-15 -25 -15 -11 0 -23 -4 -26 -10 -3 -5 -19 -10 -34 -10 -16 0 -34 -7 -41 -15
-7 -8 -27 -15 -45 -15 -18 0 -38 -7 -45 -15 -7 -8 -25 -15 -41 -15 -15 0 -31
-4 -34 -10 -3 -5 -15 -10 -26 -10 -11 0 -22 -7 -25 -15 -4 -9 -19 -15 -39 -15
-18 0 -38 -7 -45 -15 -7 -8 -27 -15 -45 -15 -19 0 -35 -6 -37 -12 -3 -7 -18
-11 -35 -10 -17 1 -36 -4 -43 -13 -7 -8 -20 -15 -30 -15 -10 0 -20 -7 -24 -15
-3 -9 -18 -15 -39 -15 -19 0 -40 -7 -47 -15 -7 -8 -25 -15 -41 -15 -15 0 -31
-4 -34 -10 -3 -5 -22 -10 -41 -10 -22 0 -37 -6 -40 -15 -4 -8 -16 -15 -29 -15
-13 0 -25 -7 -29 -15 -3 -9 -19 -15 -41 -15 -19 0 -35 -4 -35 -10 0 -5 -15
-10 -33 -10 -62 0 -103 -74 -45 -82 l23 -3 3 -487 c2 -423 0 -488 -13 -501 -8
-9 -15 -22 -15 -29 0 -18 142 -158 160 -158 8 0 25 -12 37 -27 l23 -26 0
-1107 c0 -957 -2 -1109 -15 -1126 -12 -16 -14 -226 -15 -1605 0 -1432 2 -1588
16 -1600 13 -10 17 -10 25 2 5 8 9 249 9 557 l0 542 39 0 c22 0 43 -5 46 -10
4 -6 76 -10 184 -10 147 0 181 -3 191 -15 10 -12 45 -15 200 -15 155 0 190 -3
200 -15 10 -12 44 -15 187 -15 160 0 177 -2 200 -20 23 -18 41 -20 193 -20
137 0 170 -3 180 -15 10 -12 44 -15 190 -15 146 0 180 -3 190 -15 10 -12 44
-15 185 -15 141 0 175 -3 185 -15 10 -12 44 -15 185 -15 134 0 179 -3 201 -15
22 -11 67 -15 194 -15 111 0 170 -4 177 -11 8 -8 70 -11 194 -11 166 1 185 -1
207 -19 22 -17 42 -19 193 -19 101 0 170 -4 174 -10 4 -6 63 -10 144 -10 135
0 138 0 162 -26 l24 -26 5 -363 c3 -200 8 -367 13 -371 11 -12 -24 -44 -48
-44 -13 0 -28 6 -34 14 -10 12 -46 15 -173 15 -99 0 -165 4 -172 11 -6 6 -71
10 -167 10 -141 0 -159 2 -182 20 -23 18 -40 20 -180 20 -125 0 -157 3 -167
15 -10 12 -43 15 -175 15 -132 0 -165 3 -175 15 -10 12 -43 15 -175 15 -132 0
-165 3 -175 15 -10 12 -43 15 -175 15 -132 0 -165 3 -175 15 -10 12 -43 15
-180 15 -140 0 -169 2 -174 15 -4 12 -33 15 -169 15 -134 0 -167 3 -177 15
-10 12 -43 15 -175 15 -123 0 -165 3 -174 13 -8 10 -52 14 -173 16 -125 2
-167 6 -179 17 -12 11 -49 14 -161 14 -117 0 -148 3 -158 15 -19 23 -278 22
-287 -1 -10 -26 16 -34 117 -34 63 -1 103 -5 120 -15 19 -11 65 -14 181 -15
127 0 159 -3 169 -15 10 -12 42 -15 170 -15 128 0 160 -3 170 -15 10 -12 43
-15 176 -15 131 0 165 -3 178 -15 12 -12 46 -15 179 -15 134 0 167 -3 177 -15
10 -12 42 -15 172 -15 128 0 162 -3 174 -15 13 -12 47 -15 178 -15 133 0 166
-3 176 -15 10 -12 41 -15 160 -15 119 0 150 -3 160 -15 10 -12 42 -15 169 -15
123 0 161 -3 177 -15 15 -11 53 -14 173 -15 133 0 157 -2 174 -17 16 -15 43
-18 186 -20 100 -2 167 -7 169 -13 2 -6 67 -10 167 -10 132 0 165 -3 175 -15
8 -10 31 -15 70 -15 39 0 62 5 70 15 7 8 18 15 25 15 7 0 16 7 19 16 11 29 6
100 -9 120 -12 16 -14 75 -15 351 l0 333 -36 40 -36 40 -133 0 c-106 0 -135 3
-145 15 -10 12 -44 15 -191 15 -108 0 -180 4 -184 10 -4 6 -74 10 -179 10
-136 0 -176 3 -192 15 -15 11 -56 14 -190 15 -140 0 -174 3 -184 15 -10 12
-44 15 -190 15 -146 0 -180 3 -190 15 -10 12 -44 15 -186 15 -147 0 -175 2
-189 17 -14 13 -44 16 -191 18 -106 1 -179 6 -186 13 -8 6 -84 12 -192 14
-155 3 -179 5 -190 21 -12 15 -34 17 -203 17 -104 0 -193 4 -199 9 -5 6 -88
11 -185 13 -151 3 -178 5 -193 21 -15 15 -39 17 -191 17 -105 0 -176 4 -180
10 -3 5 -25 10 -48 10 -23 0 -52 3 -64 6 l-23 6 0 1009 c0 661 3 1010 10 1014
7 4 10 388 10 1119 0 851 3 1115 12 1124 9 9 401 12 1704 12 1489 0 1693 -2
1704 -15 11 -13 162 -15 1214 -17 l1201 -3 3 -191 c2 -155 5 -194 17 -204 13
-11 15 -223 15 -1700 0 -1491 2 -1689 15 -1694 13 -5 15 -64 15 -449 0 -331
-3 -446 -12 -455 -18 -18 -113 -15 -128 3 -10 12 -44 15 -190 15 -146 0 -180
3 -190 15 -10 12 -43 15 -179 15 -132 0 -171 3 -187 15 -15 11 -55 14 -189 15
-153 0 -173 2 -200 20 -44 29 -107 26 -161 -8 l-43 -27 -1 -376 c0 -314 -2
-378 -15 -395 -20 -27 -18 -85 4 -111 18 -22 26 -23 169 -23 121 0 152 -3 162
-15 10 -12 43 -15 175 -15 132 0 165 -3 175 -15 10 -12 42 -15 173 -15 131 0
164 -3 178 -16 13 -12 49 -16 160 -19 280 -8 292 -14 287 -144 -3 -70 -5 -76
-23 -73 -11 2 -27 10 -36 18 -12 11 -52 14 -176 14 -131 0 -163 3 -173 15 -10
12 -43 15 -175 15 -136 0 -164 3 -169 15 -4 12 -33 15 -171 15 -135 0 -169 3
-181 15 -13 12 -47 15 -180 15 -103 0 -164 4 -164 10 0 6 -66 10 -179 10 -146
0 -181 3 -191 15 -10 12 -42 15 -169 15 -123 0 -161 3 -177 15 -15 11 -54 14
-177 15 -143 0 -161 2 -184 20 -23 18 -41 20 -185 20 -132 0 -160 3 -164 15
-5 13 -35 15 -184 15 -146 0 -180 3 -190 15 -10 12 -43 15 -175 15 -132 0
-165 3 -175 15 -10 12 -43 15 -175 15 -132 0 -165 3 -175 15 -10 12 -43 15
-174 15 -105 0 -166 4 -173 11 -7 7 -74 12 -186 13 -146 1 -178 4 -193 17 -16
14 -47 17 -179 18 -88 1 -164 6 -170 12 -5 5 -79 9 -166 9 -141 0 -159 2 -182
20 -23 18 -40 20 -180 20 -127 0 -157 3 -167 15 -10 12 -30 15 -84 13 -63 -3
-71 -5 -71 -23 0 -16 8 -21 47 -25 27 -3 53 -11 60 -18 8 -8 60 -12 169 -12
137 0 160 -2 175 -17 15 -16 42 -18 193 -21 97 -2 180 -7 186 -13 5 -5 82 -9
171 -9 131 0 164 -3 174 -15 10 -12 43 -15 175 -15 132 0 165 -3 175 -15 10
-12 43 -15 175 -15 132 0 165 -3 175 -15 10 -12 43 -15 175 -15 132 0 165 -3
175 -15 10 -12 44 -15 183 -15 144 0 173 -3 189 -16 15 -14 41 -16 162 -15
111 2 153 -2 181 -13 28 -12 75 -16 187 -16 135 0 152 -2 175 -20 23 -18 41
-20 184 -20 94 0 160 -4 164 -10 4 -6 75 -10 180 -10 152 0 176 -2 191 -18 15
-14 41 -17 183 -20 91 -2 170 -7 176 -12 6 -5 82 -10 168 -11 121 -1 161 -4
171 -15 11 -11 51 -14 179 -14 134 0 167 -3 177 -15 10 -12 44 -15 185 -15
141 0 175 -3 185 -15 10 -12 42 -15 173 -15 137 0 163 -3 179 -17 14 -13 37
-17 94 -16 82 0 98 9 90 52 -3 20 12 40 80 107 46 46 84 88 84 93 0 18 42 81
54 81 6 0 32 20 56 45 24 25 49 45 55 45 6 0 24 13 40 30 16 17 34 30 40 30 6
0 24 13 40 30 16 16 34 30 40 30 7 0 31 20 54 45 23 25 48 45 55 45 7 0 25 13
41 30 16 17 34 30 40 30 6 0 24 13 40 30 16 17 35 30 42 30 7 0 22 14 35 30
12 17 30 30 40 30 9 0 27 14 40 30 12 17 29 30 38 30 9 0 29 13 45 30 16 16
34 30 41 30 7 0 30 20 50 44 20 25 48 47 60 50 13 4 31 17 40 31 9 14 24 25
34 25 9 0 27 14 40 30 13 17 31 30 40 30 10 0 34 20 54 45 21 25 43 45 50 45
7 0 25 13 41 30 16 17 34 30 40 30 6 0 24 13 40 30 16 16 35 30 42 30 7 0 26
14 41 30 16 17 36 30 44 30 8 0 34 23 57 50 23 28 48 50 56 50 7 0 40 30 72
66 32 36 68 70 81 75 18 7 22 16 22 52 0 24 7 52 15 63 20 26 22 600 3 606
-10 4 -15 273 -21 1274 -4 698 -10 1841 -15 2540 -6 1107 -9 1273 -22 1289
-12 15 -15 62 -15 279 l0 261 -30 3 c-19 3 -33 -2 -42 -14 -12 -16 -14 -16
-31 -1 -17 16 -163 17 -1995 17 -1306 0 -1978 3 -1982 10 -4 7 -320 10 -916
10 -599 0 -909 -3 -909 -10z m1774 -45 c5 -13 231 -15 1951 -15 1722 0 1945
-2 1945 -15 0 -11 -11 -15 -35 -15 -22 0 -38 -6 -41 -15 -4 -9 -19 -15 -39
-15 -18 0 -38 -7 -45 -15 -7 -8 -27 -15 -45 -15 -19 0 -35 -3 -37 -7 -6 -15
-70 -43 -96 -43 -15 0 -40 -7 -56 -15 -15 -8 -35 -15 -42 -15 -8 0 -22 -4 -32
-9 -50 -27 -88 -41 -114 -41 -16 0 -31 -6 -34 -15 -4 -9 -19 -15 -39 -15 -18
0 -38 -7 -45 -15 -7 -8 -21 -15 -31 -15 -11 0 -19 -4 -19 -10 0 -5 -15 -10
-34 -10 -18 0 -39 -7 -46 -15 -7 -8 -27 -15 -45 -15 -20 0 -35 -6 -39 -15 -3
-9 -19 -15 -41 -15 -19 0 -35 -4 -35 -10 0 -5 -15 -10 -34 -10 -18 0 -39 -7
-46 -15 -7 -8 -27 -15 -45 -15 -20 0 -35 -6 -39 -15 -3 -8 -14 -15 -25 -15
-11 0 -23 -4 -26 -10 -3 -5 -22 -10 -41 -10 -22 0 -37 -6 -40 -15 -4 -9 -19
-15 -39 -15 -18 0 -38 -7 -45 -15 -7 -8 -27 -15 -45 -15 -19 0 -35 -6 -38 -14
-4 -9 -19 -14 -38 -14 -18 1 -35 -4 -37 -10 -2 -7 -18 -12 -37 -12 -18 0 -38
-7 -45 -15 -7 -8 -27 -15 -45 -15 -20 0 -35 -6 -39 -15 -3 -8 -14 -15 -25 -15
-11 0 -23 -4 -26 -10 -3 -5 -14 -10 -24 -10 -10 0 -24 -7 -31 -15 -7 -8 -19
-15 -27 -15 -8 0 -21 -7 -29 -15 -22 -21 -196 -21 -214 0 -11 13 -74 15 -460
15 -389 0 -449 -2 -454 -15 -5 -13 -117 -15 -925 -15 -602 0 -922 -3 -926 -10
-4 -7 -323 -10 -924 -10 -816 0 -920 -2 -931 -15 -11 -14 -38 -15 -184 -10
-94 3 -216 4 -271 3 -277 -8 -538 -3 -542 10 -3 8 7 12 30 12 19 0 40 7 47 15
7 8 27 15 45 15 20 0 35 6 39 15 3 9 18 15 39 15 19 0 40 7 47 15 7 8 16 13
20 10 5 -3 15 2 23 10 9 8 29 15 45 15 16 0 35 7 42 15 7 8 25 15 40 15 15 0
33 7 40 15 7 8 28 15 46 15 19 0 34 5 34 10 0 6 8 10 19 10 10 0 24 7 31 15 7
8 26 15 42 15 16 0 36 7 44 15 9 8 28 15 44 15 16 0 32 5 35 10 3 6 21 10 40
10 20 0 35 6 39 15 3 9 18 15 39 15 19 0 40 7 47 15 7 8 21 15 31 15 11 0 19
5 19 10 0 6 15 10 34 10 18 0 39 7 46 15 7 8 25 15 40 15 15 0 33 7 40 15 7 8
28 15 46 15 19 0 34 5 34 10 0 6 8 10 19 10 10 0 24 7 31 15 7 8 28 15 47 15
21 0 36 6 39 15 4 9 19 15 39 15 18 0 38 7 45 15 7 8 25 15 41 15 15 0 31 5
34 10 3 6 14 10 24 10 10 0 24 7 31 15 7 8 27 15 45 15 20 0 35 6 39 15 3 9
18 15 40 15 19 0 38 5 41 10 3 6 19 10 34 10 16 0 34 7 41 15 7 8 20 15 30 15
10 0 23 7 30 15 7 8 25 15 41 15 15 0 31 5 34 10 3 6 22 10 41 10 22 0 36 5
39 15 3 8 7 22 10 30 4 13 111 15 884 15 772 0 880 -2 885 -15z m4086 -124 c0
-44 -4 -82 -9 -86 -5 -3 -31 -6 -58 -6 -75 -1 -152 -20 -350 -85 -55 -19 -108
-34 -116 -34 -8 0 -20 -7 -27 -15 -7 -8 -24 -15 -39 -15 -14 0 -35 -7 -45 -15
-11 -8 -30 -15 -42 -15 -12 0 -27 -7 -34 -15 -7 -8 -26 -15 -42 -15 -16 0 -36
-7 -44 -15 -9 -8 -28 -15 -43 -15 -15 0 -32 -5 -37 -10 -6 -6 -24 -13 -40 -16
-16 -3 -36 -12 -45 -20 -8 -8 -27 -14 -42 -14 -14 0 -29 -4 -32 -10 -3 -5 -17
-10 -29 -10 -13 0 -35 -9 -49 -20 -14 -11 -34 -20 -45 -20 -11 0 -27 -7 -36
-15 -8 -8 -25 -15 -38 -15 -13 0 -33 -7 -44 -15 -10 -8 -32 -15 -47 -15 -15 0
-30 -7 -33 -15 -4 -9 -19 -15 -39 -15 -18 0 -38 -7 -45 -15 -7 -8 -25 -15 -40
-15 -15 0 -33 -7 -40 -15 -7 -8 -23 -15 -35 -15 -13 0 -36 -7 -51 -15 -16 -8
-36 -15 -45 -15 -8 0 -19 -4 -25 -8 -5 -4 -36 -16 -69 -26 -33 -10 -68 -22
-77 -27 -10 -5 -22 -9 -28 -9 -18 0 -47 34 -54 63 -6 23 -2 34 19 53 14 13 30
24 36 24 5 0 21 7 34 16 14 9 34 14 46 11 12 -3 22 0 26 9 3 8 19 14 38 14 18
0 38 7 45 15 7 8 27 15 45 15 20 0 35 6 39 15 3 9 18 15 40 15 19 0 38 5 41
10 3 6 19 10 34 10 16 0 34 7 41 15 7 8 20 15 30 15 10 0 23 7 30 15 7 8 25
15 41 15 15 0 31 5 34 10 3 6 22 10 41 10 22 0 37 6 40 15 4 9 19 15 39 15 18
0 38 7 45 15 7 8 25 15 41 15 15 0 31 5 34 10 3 6 14 10 24 10 10 0 24 7 31
15 7 8 27 15 45 15 20 0 35 6 39 15 3 9 18 15 40 15 19 0 38 5 41 10 3 6 19
10 34 10 16 0 34 7 41 15 7 8 27 15 45 15 20 0 35 6 39 15 3 9 18 15 40 15 19
0 37 4 41 9 9 16 66 41 91 41 13 0 38 6 56 14 18 8 49 21 70 30 20 9 45 16 57
16 12 0 21 5 21 10 0 6 15 10 34 10 18 0 39 7 46 15 7 8 25 15 40 15 15 0 33
7 40 15 7 8 28 15 46 15 19 0 34 5 34 10 0 6 14 10 30 10 l30 0 0 -79z m-16
-162 c25 -29 26 -36 26 -149 0 -68 4 -121 10 -125 7 -4 10 -434 10 -1258 0
-1091 2 -1256 15 -1281 13 -25 15 -191 15 -1290 1 -1093 3 -1264 15 -1280 22
-29 22 -468 0 -486 -8 -6 -15 -34 -17 -63 -2 -42 -7 -54 -25 -63 -12 -6 -38
-27 -57 -47 -19 -20 -46 -41 -59 -46 -13 -5 -32 -26 -41 -46 -10 -20 -28 -40
-41 -45 -13 -5 -31 -21 -41 -35 -9 -14 -23 -25 -31 -25 -8 0 -24 -11 -34 -24
-11 -14 -29 -28 -41 -32 -13 -4 -42 -26 -65 -50 -23 -24 -47 -44 -54 -44 -6 0
-20 -11 -30 -24 -11 -14 -29 -28 -41 -32 -12 -3 -32 -19 -46 -35 -13 -16 -30
-29 -39 -29 -8 0 -26 -14 -40 -30 -13 -17 -33 -30 -43 -30 -10 0 -21 -9 -25
-19 -7 -22 -70 -81 -86 -81 -6 0 -27 -12 -45 -27 -19 -16 -49 -40 -68 -55 -18
-16 -38 -28 -43 -28 -5 0 -22 -13 -38 -30 -16 -16 -34 -30 -41 -30 -7 0 -26
-13 -42 -30 -17 -16 -36 -30 -44 -30 -7 0 -24 -16 -38 -35 -14 -18 -42 -43
-63 -55 -21 -12 -43 -30 -50 -41 -6 -10 -17 -19 -24 -19 -7 0 -28 -13 -46 -30
-19 -17 -38 -30 -42 -30 -10 0 -72 -52 -134 -113 -27 -26 -56 -47 -64 -47 -9
0 -24 -11 -35 -25 -11 -14 -27 -25 -35 -25 -21 0 -87 -79 -87 -104 0 -25 -89
-116 -113 -116 -8 0 -18 7 -21 16 -3 9 -6 452 -6 984 0 635 -3 971 -10 975 -7
4 -10 581 -10 1699 0 1493 -2 1695 -15 1706 -13 11 -15 109 -15 771 0 862 -6
799 82 799 26 0 50 5 53 10 3 6 16 10 28 10 38 1 137 39 169 65 16 14 40 25
53 25 12 0 36 7 51 15 16 8 39 15 52 15 12 0 22 5 22 10 0 6 15 10 34 10 18 0
39 7 46 15 7 8 25 15 40 15 15 0 33 7 40 15 7 8 20 15 29 15 9 0 30 8 46 18
17 10 41 21 55 24 28 7 79 25 127 45 17 7 37 13 45 13 7 0 22 7 32 15 11 8 27
15 37 15 9 0 30 7 45 15 16 8 37 15 46 15 9 0 20 5 23 10 3 6 19 10 35 10 16
0 35 7 44 15 8 8 28 15 44 15 16 0 35 7 42 15 7 8 24 15 38 15 13 0 30 6 36
14 12 14 103 46 133 46 10 0 26 9 36 20 9 11 28 20 41 20 13 0 37 7 52 15 16
8 36 15 44 15 8 0 24 7 34 15 12 9 42 15 77 15 52 0 60 -3 83 -31z m-2294
-469 c0 -5 35 -10 78 -12 l77 -3 0 -50 0 -50 -216 -3 c-177 -2 -219 -5 -229
-17 -11 -13 -106 -15 -709 -15 -598 0 -700 -2 -717 -15 -16 -12 -119 -14 -715
-15 -607 0 -698 -2 -709 -15 -11 -13 -104 -15 -728 -15 -624 0 -716 -2 -726
-15 -10 -13 -81 -15 -535 -15 -387 0 -527 3 -538 11 -10 9 -13 31 -11 83 l3
71 285 9 c157 4 303 8 325 7 458 -13 531 -12 544 3 12 14 108 16 928 16 799 0
916 2 929 15 14 13 129 15 920 15 596 0 904 3 904 10 0 7 147 10 420 10 261 0
420 -4 420 -10z m351 -570 c1 -319 2 -591 2 -605 0 -72 -6 -72 -83 5 l-60 60
-1 403 c0 221 -4 438 -9 482 -14 137 15 214 82 215 15 0 30 5 33 10 3 6 13 10
21 10 12 0 14 -82 15 -580z m-210 378 c17 -22 18 -48 19 -493 l0 -471 55 -54
c30 -30 55 -58 55 -62 0 -12 -2308 -10 -2315 2 -4 7 -588 10 -1719 10 l-1712
0 -24 30 c-14 16 -33 29 -42 30 -17 0 -78 55 -78 71 0 5 32 9 70 9 40 0 70 -4
70 -10 0 -7 470 -10 1389 -10 1223 0 1390 -2 1401 -15 11 -13 177 -15 1414
-13 1393 3 1401 3 1401 23 0 20 -8 20 -1382 23 -911 1 -1383 5 -1383 12 0 7
-250 10 -724 10 -398 0 -731 3 -740 6 -14 5 -16 30 -16 174 0 137 -3 170 -15
180 -12 10 -15 48 -15 224 0 116 3 221 6 234 l6 22 503 0 c435 0 504 2 515 15
11 13 104 15 725 15 621 0 714 2 725 15 11 13 103 15 715 15 612 0 704 2 715
15 10 12 44 15 187 15 169 0 175 -1 194 -22z m-4333 -334 c2 -217 5 -264 17
-274 12 -10 15 -39 15 -137 0 -68 -5 -133 -10 -144 -10 -18 -28 -19 -629 -19
-532 0 -620 2 -631 15 -9 11 -41 15 -128 17 l-117 3 0 390 0 390 61 3 c45 2
64 -1 74 -13 10 -12 36 -15 126 -15 64 0 115 4 119 10 4 6 138 10 369 10 313
0 365 2 376 15 11 13 41 15 184 13 l171 -3 3 -261z m3470 -5472 c117 -2 181
-7 191 -15 9 -8 76 -13 202 -15 147 -3 190 -7 200 -18 9 -11 48 -14 189 -14
147 0 179 -3 183 -15 5 -10 27 -15 84 -17 l78 -3 0 -418 c0 -334 -3 -419 -13
-426 -18 -11 -59 -2 -73 15 -9 11 -47 14 -174 14 -132 0 -165 3 -175 15 -10
12 -41 15 -160 15 -119 0 -150 3 -160 15 -10 12 -43 15 -180 15 -139 0 -169 3
-174 15 -4 12 -36 15 -173 17 l-168 3 -3 24 c-2 13 1 28 7 34 8 8 11 124 11
365 0 343 4 392 31 392 6 0 22 9 36 20 25 19 27 20 46 3 16 -16 44 -18 195
-21z"/>
<path d="M8390 9626 c-7 -9 -19 -16 -27 -16 -8 0 -21 -7 -29 -15 -9 -8 -28
-15 -44 -15 -16 0 -32 -4 -35 -10 -3 -5 -21 -10 -40 -10 -20 0 -35 -6 -39 -15
-3 -8 -14 -15 -24 -15 -11 0 -25 -7 -32 -15 -7 -8 -21 -15 -31 -15 -11 0 -19
-4 -19 -10 0 -5 -15 -10 -34 -10 -18 0 -39 -7 -46 -15 -7 -8 -27 -15 -45 -15
-20 0 -35 -6 -39 -15 -3 -8 -14 -15 -25 -15 -11 0 -23 -4 -26 -10 -3 -5 -14
-10 -24 -10 -10 0 -24 -7 -31 -15 -7 -8 -27 -15 -45 -15 -20 0 -35 -6 -39 -15
-3 -9 -18 -15 -36 -15 -17 0 -38 -7 -47 -15 -8 -8 -18 -13 -23 -10 -4 3 -13
-2 -20 -10 -7 -8 -20 -15 -30 -15 -10 0 -23 -7 -30 -15 -7 -8 -26 -15 -42 -15
-16 0 -36 -7 -44 -15 -9 -8 -29 -15 -45 -15 -16 0 -29 -4 -29 -10 0 -5 -11
-10 -24 -10 -13 0 -26 -7 -30 -15 -3 -8 -14 -15 -24 -15 -11 0 -25 -7 -32 -15
-7 -8 -28 -15 -46 -15 -19 0 -34 -4 -34 -10 0 -5 -15 -10 -33 -10 -38 0 -67
-25 -67 -58 0 -18 6 -22 29 -22 16 0 34 7 41 16 9 10 26 14 49 12 l36 -3 3
-403 c1 -262 6 -401 12 -397 6 4 10 156 10 414 0 382 1 409 18 424 10 10 35
17 55 17 l37 0 0 -415 c0 -387 -1 -416 -17 -421 -10 -3 -26 -10 -35 -15 -10
-5 -25 -9 -33 -9 -9 0 -18 -7 -21 -15 -4 -9 -19 -15 -39 -15 -18 0 -38 -7 -45
-15 -7 -9 -23 -15 -34 -13 -21 3 -21 6 -24 406 -2 394 -3 402 -22 402 -20 0
-20 -8 -20 -440 l0 -440 44 0 c26 0 48 6 56 15 7 8 21 15 31 15 11 0 19 5 19
10 0 6 8 10 19 10 10 0 24 7 31 15 7 8 27 15 45 15 18 0 38 7 45 15 7 8 21 15
31 15 11 0 19 5 19 10 0 6 8 10 19 10 10 0 24 7 31 15 7 8 27 15 45 15 20 0
35 6 39 15 3 8 12 15 20 15 8 0 36 11 62 25 26 14 53 25 59 25 7 0 15 7 19 15
3 9 18 15 39 15 19 0 40 7 47 15 7 8 19 15 28 15 8 0 25 11 38 25 15 16 34 25
54 25 26 0 35 8 32 32 -1 3 5 12 13 18 8 7 15 20 15 30 0 10 7 20 15 24 8 3
15 14 15 24 0 11 7 25 15 32 8 7 15 21 15 31 0 10 5 21 10 24 6 3 10 15 10 26
0 11 7 22 15 25 8 4 15 16 15 29 0 13 7 25 15 29 8 3 15 14 15 25 0 11 5 23
10 26 6 3 10 15 10 26 0 11 7 22 15 25 8 4 15 16 15 29 0 13 7 25 15 29 8 3
15 14 15 25 0 11 5 23 10 26 6 3 10 15 10 26 0 11 7 22 15 25 8 4 15 16 15 29
0 13 7 25 15 29 8 3 15 14 15 25 0 11 5 23 10 26 6 3 10 15 10 26 0 11 7 22
15 25 8 4 15 16 15 29 0 13 7 25 15 29 8 3 15 14 15 25 0 11 5 23 10 26 6 3
10 14 10 24 0 10 7 24 15 31 8 7 15 21 15 32 0 10 7 21 15 24 8 4 15 16 15 29
0 13 6 25 14 28 10 4 14 22 13 64 -2 57 -2 58 -33 61 -19 2 -36 -3 -44 -12z
m30 -75 c0 -5 -7 -14 -15 -21 -8 -7 -15 -19 -15 -27 0 -8 -11 -24 -25 -37 -14
-13 -25 -30 -25 -38 0 -9 -6 -21 -14 -28 -8 -6 -16 -21 -18 -33 -7 -49 -23
-12 -26 58 -2 64 0 77 18 95 11 11 29 20 40 20 11 0 20 5 20 10 0 6 14 10 30
10 17 0 30 -4 30 -9z m-162 -133 c2 -67 -1 -88 -13 -98 -10 -8 -15 -30 -15
-70 0 -39 -5 -62 -15 -70 -8 -7 -15 -21 -15 -31 0 -11 -4 -19 -10 -19 -5 0
-10 -8 -10 -19 0 -10 -6 -24 -14 -31 -8 -6 -16 -21 -18 -32 -2 -12 -9 -23 -16
-26 -10 -3 -12 42 -10 215 3 218 3 218 26 221 12 2 22 8 22 13 0 5 8 9 19 9
10 0 24 7 31 15 25 30 35 9 38 -77z m-160 -203 c2 -139 6 -211 13 -216 12 -7
-18 -89 -33 -89 -4 0 -8 -8 -8 -19 0 -10 -7 -24 -15 -31 -8 -7 -15 -17 -15
-23 0 -22 -35 -87 -44 -84 -7 2 -12 97 -14 277 -2 231 -5 276 -18 291 -9 10
-14 30 -12 46 3 25 8 28 41 31 22 2 41 9 44 18 3 9 16 14 32 12 l26 -3 3 -210z
m-158 114 c0 -15 5 -31 10 -34 6 -4 10 -121 10 -317 0 -271 -2 -316 -17 -350
-9 -21 -20 -38 -25 -38 -4 0 -8 -8 -8 -17 0 -17 -37 -63 -52 -63 -4 0 -8 112
-8 249 0 210 -2 250 -15 261 -13 11 -15 39 -13 169 l3 156 35 3 c19 2 39 10
43 18 13 23 37 -2 37 -37z m-140 -168 c0 -132 3 -160 15 -165 13 -5 15 -40 15
-238 0 -224 -1 -232 -22 -255 -12 -13 -28 -23 -36 -23 -9 0 -23 -7 -33 -16
-10 -9 -25 -14 -34 -11 -13 5 -15 31 -15 162 0 129 -3 157 -15 161 -13 5 -15
42 -15 242 0 228 1 236 22 259 14 15 33 23 55 23 18 0 33 5 33 10 0 6 7 10 15
10 13 0 15 -24 15 -159z m-162 -159 c2 -192 5 -236 17 -249 13 -12 15 -42 13
-166 -3 -143 -4 -152 -23 -155 -11 -2 -28 -11 -37 -19 -9 -8 -25 -13 -35 -11
-17 3 -18 19 -21 216 -1 130 -6 212 -12 212 -6 0 -10 -84 -10 -222 0 -192 -2
-224 -17 -240 -9 -10 -24 -18 -33 -18 -10 0 -23 -7 -30 -15 -7 -9 -23 -15 -34
-13 -21 3 -21 6 -24 412 -2 409 -2 409 20 433 14 15 33 23 55 23 18 0 34 -1
35 -2 1 -2 5 -82 8 -178 l6 -175 2 179 c2 170 3 181 24 203 17 18 31 23 58 21
l35 -3 3 -233z"/>
<path d="M8610 9560 c0 -11 -7 -23 -15 -26 -9 -4 -15 -19 -15 -39 0 -18 -7
-38 -15 -45 -8 -7 -15 -21 -15 -31 0 -10 -4 -21 -10 -24 -5 -3 -10 -19 -10
-34 0 -16 -7 -34 -15 -41 -8 -7 -15 -20 -15 -30 0 -10 -7 -23 -15 -30 -8 -7
-15 -25 -15 -41 0 -15 -4 -31 -10 -34 -5 -3 -10 -14 -10 -24 0 -10 -7 -24 -15
-31 -8 -7 -15 -25 -15 -40 0 -15 -7 -33 -15 -40 -8 -7 -15 -21 -15 -31 0 -10
-4 -21 -10 -24 -5 -3 -10 -19 -10 -34 0 -16 -7 -34 -15 -41 -8 -7 -15 -20 -15
-30 0 -10 -7 -23 -15 -30 -8 -7 -15 -28 -15 -46 0 -19 -4 -34 -8 -34 -12 0
-42 -73 -42 -104 0 -14 -7 -29 -15 -32 -8 -4 -15 -14 -15 -24 0 -10 -7 -23
-15 -30 -8 -7 -15 -28 -15 -46 0 -19 -4 -34 -10 -34 -5 0 -10 -8 -10 -19 0
-10 -7 -24 -15 -31 -8 -7 -15 -28 -15 -47 0 -21 -6 -36 -15 -39 -8 -4 -15 -14
-15 -24 0 -11 -4 -22 -10 -25 -5 -3 -10 -17 -10 -31 0 -13 5 -24 10 -24 7 0
10 -636 10 -1889 0 -1666 2 -1890 15 -1901 13 -11 15 -71 15 -430 0 -359 2
-419 15 -430 8 -7 15 -21 15 -31 0 -27 32 -24 60 6 13 14 30 25 38 25 8 0 28
14 44 30 16 17 33 28 37 26 5 -3 29 15 54 39 25 25 51 45 59 45 8 0 32 18 53
40 21 22 46 40 53 40 8 0 25 11 38 25 13 14 30 25 39 25 9 0 32 17 53 39 20
21 46 40 57 42 19 4 20 13 23 304 2 259 0 300 -13 308 -12 6 -15 32 -15 133 0
98 -3 129 -15 140 -13 14 -15 290 -15 2370 0 2347 0 2354 -20 2354 -20 0 -20
-7 -20 -2384 0 -1579 3 -2387 10 -2391 6 -4 10 -72 10 -170 0 -132 3 -166 15
-179 12 -12 15 -51 15 -220 0 -193 -1 -207 -20 -226 -11 -11 -27 -20 -36 -20
-9 0 -25 -11 -36 -25 -11 -14 -27 -25 -37 -25 -9 0 -35 -18 -56 -40 -21 -22
-46 -40 -55 -40 -8 0 -32 -18 -53 -40 -20 -22 -43 -40 -50 -40 -8 0 -27 -13
-43 -30 -16 -16 -36 -30 -45 -30 -8 0 -26 -11 -39 -25 -13 -14 -34 -25 -47
-25 l-23 0 0 409 c0 351 -2 410 -15 421 -13 11 -15 236 -15 1915 0 1679 2
1904 15 1915 8 7 15 25 15 41 0 15 5 31 10 34 6 3 10 22 10 41 0 22 6 37 15
40 8 4 15 14 15 24 0 10 7 23 15 30 8 7 15 21 15 31 0 10 5 21 10 24 6 3 10
19 10 34 0 16 7 34 15 41 8 7 15 28 15 47 0 21 6 36 15 39 8 4 15 15 15 26 0
11 7 26 15 35 8 8 13 18 10 23 -3 4 2 13 10 20 8 7 15 27 15 45 0 20 6 35 15
39 8 3 15 14 15 24 0 10 5 23 12 30 6 6 13 26 14 44 2 18 8 34 13 36 6 2 11
12 11 22 0 9 7 23 15 30 8 7 15 27 15 45 0 20 6 35 15 39 8 3 15 17 15 31 0
14 5 25 10 25 6 0 10 16 10 35 0 22 6 38 15 41 8 4 15 16 15 29 0 13 7 25 15
29 9 3 15 18 15 40 0 19 5 38 10 41 6 3 10 26 10 51 0 37 -3 44 -20 44 -13 0
-20 -7 -20 -20z"/>
<path d="M7830 8312 c0 -9 -69 -42 -87 -42 -6 0 -16 -7 -23 -15 -7 -8 -20 -15
-30 -15 -10 0 -23 -7 -30 -15 -7 -8 -21 -15 -31 -15 -11 0 -19 -4 -19 -10 0
-5 -16 -10 -35 -10 -22 0 -38 -6 -41 -15 -4 -8 -16 -15 -29 -15 -13 0 -25 -7
-29 -15 -3 -8 -14 -15 -24 -15 -11 0 -25 -6 -32 -14 -6 -8 -17 -13 -24 -10 -7
3 -19 -2 -26 -11 -7 -8 -20 -15 -30 -15 -10 0 -20 -7 -24 -15 -3 -8 -14 -15
-24 -15 -11 0 -25 -7 -32 -15 -7 -8 -25 -15 -41 -15 -16 0 -29 -4 -29 -10 0
-5 -13 -25 -30 -43 l-30 -35 0 -1317 c0 -1157 2 -1318 15 -1331 13 -14 15
-163 15 -1223 0 -1157 1 -1209 18 -1224 17 -16 20 -15 42 8 13 14 31 25 40 25
9 0 27 11 40 25 13 14 29 25 37 25 7 0 31 18 53 40 22 22 46 40 53 40 7 0 31
18 52 40 21 22 46 40 55 40 9 0 29 13 45 30 16 17 36 30 44 30 9 0 32 18 51
40 19 22 42 40 50 40 9 0 33 18 55 40 22 21 47 39 55 40 15 0 129 115 159 160
10 15 17 51 19 100 2 41 5 843 8 1783 4 1518 3 1708 -11 1713 -13 5 -15 81
-15 618 0 710 11 646 -110 646 -39 0 -70 -4 -70 -8z m130 -666 c0 -542 2 -625
15 -636 13 -11 15 -219 15 -1763 l0 -1751 -47 -48 c-26 -26 -55 -48 -64 -48
-9 0 -33 -18 -53 -40 -20 -22 -43 -40 -51 -40 -8 0 -32 -18 -54 -40 -21 -22
-45 -40 -53 -40 -8 0 -27 -14 -43 -30 -16 -17 -36 -30 -45 -30 -9 0 -34 -18
-55 -40 -21 -22 -46 -40 -53 -40 -8 0 -25 -11 -38 -25 -13 -14 -29 -25 -36
-25 -8 0 -32 -18 -53 -40 -21 -22 -46 -40 -54 -40 -8 0 -27 -12 -42 -26 -15
-14 -32 -23 -38 -20 -8 5 -11 357 -11 1205 0 779 -3 1200 -10 1207 -6 6 -10
463 -10 1309 0 1281 0 1300 19 1303 11 2 25 10 31 18 7 8 27 14 45 14 19 0 35
3 37 8 4 10 67 42 83 42 7 0 18 7 25 15 7 8 21 15 31 15 11 0 19 4 19 8 0 9
69 42 87 42 6 0 16 7 23 15 7 8 21 15 31 15 11 0 19 4 19 8 0 12 73 42 104 42
14 0 29 7 32 15 4 8 16 15 29 15 13 0 25 7 29 15 3 8 14 15 25 15 11 0 23 5
26 10 3 6 24 10 46 10 l39 0 0 -624z"/>
<path d="M4390 9036 c0 -19 4 -36 10 -38 6 -2 10 -91 10 -226 1 -187 4 -224
16 -229 8 -3 23 2 33 11 16 15 107 16 989 16 l972 0 -2 238 -3 237 -125 3
c-68 1 -129 7 -134 12 -6 6 -336 10 -888 10 l-878 0 0 -34z m1717 -21 c7 -11
37 -15 138 -17 l130 -3 0 -185 0 -185 -955 0 -955 0 -3 190 c-1 104 0 195 2
202 4 10 167 13 820 13 706 0 816 -2 823 -15z"/>
<path d="M3664 9035 c-4 -8 -15 -15 -25 -15 -10 0 -46 -27 -79 -60 l-60 -60 0
-118 c0 -113 1 -120 24 -141 14 -13 26 -33 28 -45 2 -13 11 -22 24 -24 12 -2
32 -14 45 -28 13 -14 34 -24 50 -24 14 0 32 -7 39 -15 10 -11 35 -15 110 -15
75 0 100 4 110 15 7 8 21 15 31 15 11 0 19 4 19 9 0 5 10 11 22 13 13 2 24 11
26 23 2 11 15 30 28 41 13 12 24 28 24 36 0 9 7 21 15 28 11 9 15 32 15 82 0
48 -5 74 -15 84 -8 9 -15 28 -15 43 0 19 -16 42 -58 84 -32 31 -65 57 -75 57
-10 0 -20 7 -23 15 -5 12 -29 15 -130 15 -102 0 -126 -3 -130 -15z m212 -50
c4 -8 15 -15 25 -15 24 0 139 -115 139 -139 0 -11 7 -21 15 -25 9 -3 15 -18
15 -34 0 -16 -7 -35 -15 -42 -8 -7 -15 -20 -15 -30 0 -10 -7 -23 -15 -30 -8
-7 -15 -19 -15 -26 0 -18 -36 -54 -54 -54 -7 0 -19 -7 -26 -15 -7 -8 -21 -15
-31 -15 -10 0 -21 -4 -24 -10 -3 -5 -35 -10 -70 -10 -35 0 -67 5 -70 10 -3 6
-15 10 -26 10 -11 0 -22 7 -25 15 -4 8 -13 15 -22 15 -20 0 -62 39 -62 57 0 8
-11 24 -25 37 -22 21 -25 31 -25 98 0 67 3 77 25 98 14 13 25 31 25 40 0 15
61 50 87 50 6 0 16 7 23 15 9 11 33 15 87 15 56 0 75 -4 79 -15z"/>
<path d="M3682 8867 c-40 -41 -42 -45 -42 -105 0 -34 4 -62 9 -62 5 0 11 -10
13 -22 2 -15 11 -24 26 -26 13 -2 26 -10 29 -18 4 -10 23 -14 72 -14 63 0 69
2 99 33 31 32 32 36 32 116 0 73 -3 86 -21 102 -12 10 -25 16 -29 14 -4 -3
-13 2 -20 10 -8 10 -31 15 -69 15 -54 0 -59 -2 -99 -43z m113 -17 c3 -5 13
-10 22 -10 26 0 63 -41 63 -69 0 -39 -61 -101 -99 -101 -32 0 -71 30 -71 54 0
7 -7 19 -15 26 -14 12 -14 15 0 30 8 9 15 24 15 34 0 9 8 19 18 22 9 3 24 9
32 14 20 12 28 12 35 0z"/>
<path d="M3020 8955 c-7 -8 -26 -15 -42 -15 -42 0 -118 -77 -118 -118 0 -16
-7 -35 -15 -42 -8 -7 -15 -25 -15 -40 0 -15 7 -33 15 -40 8 -7 15 -26 15 -42
0 -33 49 -88 79 -88 10 0 21 -7 25 -15 4 -12 28 -15 126 -15 l121 0 50 50 c28
28 48 54 45 59 -3 5 1 14 9 21 21 17 19 108 -2 150 -9 19 -35 53 -57 77 -31
33 -48 43 -72 43 -17 0 -37 7 -44 15 -8 9 -30 15 -60 15 -30 0 -52 -6 -60 -15z
m104 -50 c3 -8 13 -15 23 -15 22 0 113 -89 113 -111 0 -10 6 -19 13 -22 10 -3
10 -9 0 -26 -7 -11 -13 -26 -13 -33 0 -7 -21 -34 -47 -60 l-47 -48 -86 0 -85
0 -47 49 c-45 46 -48 53 -48 102 0 50 3 56 47 101 37 37 54 48 79 48 19 0 34
6 38 15 3 8 16 15 30 15 13 0 26 -7 30 -15z"/>
<path d="M1243 8954 c-3 -8 -1 -20 4 -25 5 -5 124 -8 294 -7 276 3 284 4 284
23 0 19 -8 20 -288 23 -255 2 -288 0 -294 -14z"/>
<path d="M3794 7825 c-11 -9 -44 -15 -79 -15 -33 0 -71 -7 -85 -15 -14 -8 -35
-14 -46 -15 -12 0 -35 -7 -50 -15 -16 -8 -41 -12 -57 -9 -22 3 -66 -13 -180
-69 -84 -41 -162 -78 -174 -81 -11 -4 -27 -13 -33 -21 -7 -8 -19 -15 -28 -15
-9 0 -36 -17 -61 -38 -25 -22 -60 -46 -76 -54 -17 -9 -39 -26 -50 -38 -11 -12
-36 -30 -55 -40 -45 -23 -160 -134 -193 -186 -14 -22 -43 -58 -65 -80 -22 -21
-46 -53 -55 -69 -8 -17 -24 -39 -36 -49 -12 -11 -21 -25 -21 -32 0 -7 -13 -28
-28 -46 -28 -33 -132 -234 -132 -255 0 -7 -11 -33 -25 -59 -14 -26 -25 -57
-25 -69 0 -48 -100 -92 -116 -50 -4 8 -18 15 -34 15 -15 0 -33 -7 -40 -15 -8
-9 -30 -15 -60 -15 -33 0 -50 -5 -54 -15 -3 -8 -14 -15 -24 -15 -22 0 -52 -30
-52 -52 0 -9 -7 -21 -15 -28 -8 -7 -15 -21 -15 -31 0 -11 -4 -19 -10 -19 -5 0
-10 -15 -10 -34 0 -18 -7 -39 -15 -46 -11 -9 -15 -33 -15 -85 0 -56 -4 -74
-15 -79 -20 -7 -20 -79 0 -96 12 -10 15 -37 15 -125 0 -88 3 -115 15 -125 10
-8 15 -31 15 -71 0 -33 4 -59 10 -59 6 0 10 -15 10 -34 0 -18 7 -39 15 -46 8
-7 15 -25 15 -40 0 -15 7 -33 15 -40 8 -7 15 -20 15 -29 0 -10 11 -28 25 -41
14 -13 25 -32 25 -42 0 -13 7 -18 25 -18 14 0 25 5 25 10 0 6 11 10 24 10 13
0 26 7 30 15 4 11 22 15 71 15 51 0 67 4 72 16 9 23 24 -5 17 -30 -4 -11 6
-47 24 -85 17 -36 40 -97 52 -136 12 -38 30 -79 40 -90 10 -11 28 -45 40 -75
12 -30 27 -62 35 -70 7 -8 22 -33 33 -55 11 -22 44 -67 74 -100 30 -33 62 -71
71 -85 42 -64 194 -221 262 -270 26 -19 57 -44 69 -56 11 -12 50 -38 86 -59
36 -21 72 -44 80 -50 8 -7 26 -16 40 -20 14 -4 48 -23 76 -41 28 -19 56 -34
62 -34 6 0 26 -9 44 -20 18 -11 43 -20 56 -20 13 0 36 -7 51 -15 16 -8 48 -17
72 -21 24 -4 52 -13 61 -21 9 -8 36 -16 60 -18 24 -1 70 -7 103 -14 33 -6 113
-15 179 -21 65 -5 125 -15 132 -21 8 -7 33 -9 66 -5 50 7 116 9 156 6 28 -2
123 8 182 20 30 6 80 15 110 20 30 5 102 25 160 45 100 34 134 48 248 104 9 4
33 16 53 25 20 10 47 27 60 39 34 31 76 57 92 57 15 0 65 36 127 91 19 18 63
51 98 76 34 24 68 55 74 68 6 14 19 27 30 30 10 4 18 10 18 15 0 5 28 37 61
72 34 35 79 89 100 120 21 31 43 60 49 63 5 3 10 17 10 30 0 13 18 46 40 74
22 28 40 55 40 62 0 6 9 23 19 38 11 15 23 40 27 57 3 16 14 43 24 59 10 17
21 48 25 70 3 22 17 58 30 80 22 40 29 63 40 140 3 22 12 76 21 120 21 110 47
313 46 355 -6 178 -29 387 -48 428 -8 18 -12 36 -9 41 14 23 -145 438 -175
456 -5 3 -14 22 -21 43 -6 20 -25 52 -41 70 -16 19 -31 46 -34 61 -7 33 -179
251 -199 251 -7 0 -33 22 -58 50 -24 27 -55 54 -68 60 -13 6 -37 29 -54 51
-28 38 -55 58 -155 113 -25 13 -83 49 -130 80 -47 31 -91 56 -99 56 -8 0 -43
16 -78 35 -35 19 -76 35 -91 35 -15 0 -43 8 -62 19 -19 10 -59 21 -88 25 -29
4 -67 16 -85 26 -25 16 -50 20 -119 20 -48 0 -142 4 -210 9 -244 19 -374 21
-394 6z m312 -55 c77 -6 186 -10 242 -10 83 0 110 -4 142 -20 22 -11 47 -20
57 -20 10 0 38 -11 63 -24 25 -13 63 -27 84 -30 22 -4 49 -14 60 -22 11 -8 33
-14 47 -14 15 0 51 -16 80 -35 30 -19 61 -35 71 -35 9 0 30 -11 46 -25 17 -14
35 -25 41 -25 6 0 18 -11 27 -25 9 -14 39 -37 67 -51 65 -32 111 -71 297 -247
59 -55 190 -226 190 -247 0 -9 25 -47 55 -85 30 -38 55 -79 55 -92 0 -12 11
-34 25 -49 13 -14 27 -36 30 -48 4 -11 10 -30 15 -41 19 -48 94 -284 102 -325
5 -25 14 -70 20 -100 12 -62 19 -132 22 -240 2 -41 7 -86 13 -100 6 -14 7 -37
2 -55 -4 -16 -13 -75 -19 -129 -6 -55 -17 -131 -26 -170 -8 -39 -18 -89 -21
-111 -3 -22 -14 -50 -24 -63 -10 -13 -21 -43 -25 -67 -3 -24 -17 -59 -30 -76
-13 -18 -24 -40 -24 -48 0 -25 -101 -223 -137 -267 -18 -23 -33 -44 -33 -48 0
-14 -90 -126 -163 -203 -72 -76 -86 -91 -182 -182 -78 -75 -177 -147 -220
-161 -22 -7 -56 -23 -75 -35 -33 -20 -63 -35 -231 -114 -37 -17 -76 -31 -88
-31 -12 0 -29 -4 -39 -9 -39 -21 -126 -51 -146 -51 -12 0 -67 -10 -121 -22
-91 -21 -122 -23 -235 -19 -19 1 -69 -1 -111 -5 -52 -4 -84 -2 -99 6 -12 6
-68 16 -123 20 -120 11 -170 21 -214 43 -18 9 -42 17 -55 17 -13 0 -37 9 -54
19 -17 10 -46 22 -65 26 -18 4 -67 23 -108 41 -40 19 -77 34 -82 34 -9 0 -247
158 -275 182 -7 7 -35 29 -60 48 -26 19 -65 55 -88 79 -22 24 -47 49 -55 55
-48 37 -142 139 -155 167 -8 19 -33 54 -56 79 -22 25 -43 56 -47 70 -3 14 -13
34 -23 45 -40 46 -160 296 -160 335 0 8 -10 35 -21 60 -33 71 -57 175 -66 290
-3 35 -11 72 -17 82 -18 26 -9 462 10 500 8 15 14 43 14 63 0 20 7 52 15 72 8
19 15 46 15 58 0 25 46 155 61 170 5 5 9 21 9 36 0 15 4 30 8 33 5 3 24 36 42
73 18 37 42 88 54 112 11 24 33 55 47 70 15 14 37 48 49 75 12 28 35 63 51 79
17 16 38 46 49 66 21 41 239 250 285 274 17 8 39 25 50 37 11 12 40 32 65 45
25 13 56 35 69 49 14 14 31 26 38 26 7 0 43 18 79 40 37 22 78 43 93 46 14 3
45 14 69 25 23 10 61 28 85 38 63 28 142 51 177 51 17 0 47 7 67 15 19 8 50
15 68 15 18 0 48 6 66 14 20 8 55 12 88 10 31 -2 119 -9 197 -14z m-2006
-1310 c0 -5 23 -12 50 -16 55 -7 58 -13 35 -67 -8 -20 -15 -58 -15 -85 0 -27
-6 -65 -14 -83 -9 -23 -16 -105 -21 -260 -6 -192 -5 -232 9 -272 10 -30 14
-62 10 -90 -4 -28 -1 -55 10 -81 9 -21 16 -49 16 -62 0 -23 -3 -24 -75 -24
-60 0 -76 -3 -84 -17 -9 -16 -14 -14 -50 22 -23 21 -41 47 -41 57 0 10 -4 18
-10 18 -5 0 -10 15 -10 34 0 18 -7 39 -15 46 -8 7 -15 25 -15 40 0 15 -7 33
-15 40 -10 8 -15 31 -15 71 0 32 -4 61 -10 64 -6 4 -10 83 -10 206 0 126 4
199 10 199 6 0 10 15 10 34 0 18 7 39 15 46 8 7 15 21 15 32 0 10 7 21 15 24
8 4 15 15 15 25 0 24 35 59 59 59 10 0 22 7 25 16 4 12 15 15 37 12 20 -3 33
0 36 9 6 15 33 18 33 3z"/>
<path d="M3630 7131 c-56 -8 -109 -23 -132 -37 -7 -4 -31 -7 -54 -5 -33 2 -58
-6 -116 -37 -40 -22 -97 -47 -126 -57 -29 -9 -73 -32 -97 -50 -24 -19 -56 -40
-72 -48 -15 -8 -37 -24 -47 -36 -11 -12 -23 -21 -29 -21 -16 0 -120 -100 -138
-134 -9 -17 -32 -48 -50 -67 -61 -65 -179 -272 -179 -314 0 -12 -7 -30 -15
-41 -8 -10 -15 -28 -15 -39 0 -11 -6 -37 -14 -59 -7 -21 -14 -72 -15 -115 -1
-42 -6 -80 -12 -85 -12 -13 -12 -116 1 -116 6 0 10 20 10 44 0 25 4 47 9 50 4
3 11 36 14 74 10 121 87 347 144 422 11 14 25 39 32 57 7 18 20 38 28 45 9 7
27 31 41 53 24 38 171 184 218 215 153 103 227 144 364 199 110 45 159 59 178
54 9 -2 37 4 62 13 73 29 362 27 557 -2 20 -3 37 -13 44 -26 11 -21 10 -21
-72 -15 -67 5 -88 4 -104 -8 -14 -12 -34 -14 -80 -9 -49 5 -67 3 -88 -11 -15
-10 -34 -14 -46 -10 -11 3 -34 -1 -50 -9 -17 -9 -43 -16 -58 -16 -42 -1 -191
-54 -216 -78 -12 -11 -35 -24 -52 -28 -30 -7 -87 -51 -253 -192 -47 -41 -96
-80 -108 -89 -13 -8 -26 -28 -29 -44 -4 -16 -15 -34 -26 -39 -10 -6 -19 -19
-19 -30 0 -10 -5 -22 -11 -26 -6 -3 -17 -22 -25 -41 -8 -18 -21 -36 -29 -40
-8 -3 -15 -16 -15 -29 0 -13 -9 -32 -20 -41 -12 -11 -20 -30 -20 -50 0 -21 -8
-41 -22 -55 -17 -17 -22 -37 -26 -99 -3 -60 -9 -82 -23 -95 -17 -15 -19 -34
-19 -193 0 -165 1 -177 20 -189 17 -10 20 -23 20 -86 0 -59 4 -77 20 -96 11
-13 20 -37 20 -55 0 -19 8 -39 20 -50 11 -10 20 -24 20 -30 0 -7 9 -24 20 -38
11 -14 20 -32 20 -40 0 -7 9 -22 20 -32 11 -10 20 -24 20 -30 0 -7 9 -24 20
-38 11 -14 20 -31 20 -37 0 -14 66 -74 143 -132 51 -38 137 -110 168 -140 24
-23 54 -38 77 -38 10 0 32 -11 48 -25 16 -14 40 -28 54 -31 14 -3 37 -12 52
-20 14 -8 35 -14 46 -14 12 0 24 -5 28 -11 4 -7 22 -9 45 -6 24 3 45 0 59 -10
13 -9 31 -12 51 -8 22 5 36 2 49 -10 16 -15 28 -16 84 -8 44 6 71 6 83 -1 10
-6 56 -11 103 -11 75 0 85 -2 82 -17 -3 -19 13 -24 23 -8 3 6 24 10 46 10 25
0 39 5 39 13 0 9 16 13 51 14 28 0 56 6 62 12 6 6 20 11 30 11 29 0 207 88
245 121 18 16 38 29 44 29 6 0 35 20 64 45 28 25 57 45 64 45 16 0 154 146
193 205 91 135 115 177 136 236 13 35 30 77 38 92 16 30 32 98 57 247 18 101
20 272 5 340 -6 25 -14 68 -18 95 -5 28 -13 61 -19 75 -6 14 -18 52 -28 84 -9
33 -28 75 -40 94 -13 19 -24 39 -24 45 0 17 -135 209 -181 258 -24 25 -69 66
-99 90 -30 25 -71 60 -90 77 -33 31 -93 67 -220 133 -30 16 -59 29 -65 29 -5
0 -26 10 -45 22 -34 22 -91 40 -180 58 -25 5 -66 16 -91 24 -54 17 -499 29
-589 17z m618 -141 c52 -6 106 -17 120 -24 15 -8 52 -18 83 -21 38 -4 63 -13
75 -26 9 -10 27 -19 39 -19 12 0 46 -17 76 -38 30 -21 61 -41 69 -45 8 -4 29
-16 45 -27 17 -11 39 -24 50 -29 11 -5 40 -30 63 -55 23 -25 46 -46 51 -46 14
0 117 -117 136 -153 9 -18 34 -59 56 -92 21 -33 44 -71 50 -85 6 -14 15 -33
20 -42 5 -10 9 -26 9 -35 0 -10 7 -31 15 -47 8 -15 15 -38 15 -50 0 -12 5 -27
11 -33 17 -17 31 -118 36 -255 3 -86 1 -128 -6 -128 -6 0 -11 -20 -11 -44 0
-24 -7 -57 -15 -72 -8 -16 -15 -38 -15 -48 0 -32 -33 -126 -63 -181 -6 -11
-21 -39 -33 -61 -12 -23 -31 -52 -44 -65 -12 -13 -30 -40 -39 -61 -24 -51
-100 -138 -121 -138 -10 0 -20 -4 -22 -9 -6 -17 -71 -91 -79 -91 -5 0 -31 -15
-57 -32 -26 -18 -55 -37 -64 -43 -9 -5 -37 -25 -62 -42 -26 -18 -55 -33 -65
-33 -9 0 -31 -11 -49 -24 -23 -16 -51 -25 -99 -29 -48 -5 -72 -12 -83 -25 -10
-12 -46 -23 -113 -35 -89 -16 -100 -16 -121 -1 -21 13 -35 14 -106 3 -60 -8
-84 -9 -93 0 -6 6 -32 11 -58 11 -29 0 -51 6 -59 15 -7 8 -23 15 -36 15 -12 0
-26 5 -29 10 -3 6 -17 10 -29 10 -13 0 -29 7 -36 15 -7 8 -27 15 -46 15 -18 0
-36 5 -39 10 -3 6 -16 10 -27 10 -12 0 -46 20 -76 45 -31 26 -65 45 -79 45
-18 0 -27 8 -34 30 -8 23 -17 30 -37 30 -27 0 -82 44 -82 66 0 7 -27 37 -60
66 -33 29 -60 60 -60 69 0 9 -7 22 -15 29 -8 7 -15 18 -15 25 0 8 -11 27 -25
43 -14 17 -25 35 -25 42 0 6 -9 23 -20 37 -11 14 -20 31 -20 38 0 6 -9 20 -20
30 -11 10 -20 31 -20 47 0 17 -9 41 -20 55 -15 20 -20 41 -20 90 0 50 -5 71
-20 90 -17 22 -20 41 -20 130 0 98 2 107 25 135 21 25 25 40 25 98 0 48 4 71
15 80 8 7 18 30 21 51 4 21 15 49 25 60 11 12 19 36 19 54 0 19 8 39 20 50 11
10 20 25 20 35 0 9 18 34 40 55 22 21 40 44 40 51 0 6 27 35 60 65 33 29 60
61 60 70 0 22 92 99 117 99 11 0 53 27 94 60 41 33 81 60 90 60 8 0 24 7 35
15 10 8 29 15 40 15 12 0 27 7 34 15 7 8 23 15 36 15 12 0 25 4 28 9 8 13 100
41 136 41 17 0 41 7 53 14 17 12 39 13 102 7 63 -7 83 -5 95 5 17 16 18 16
138 4z m248 -2287 c-8 -8 -13 -9 -41 -12 -8 0 -15 -8 -15 -16 0 -17 -18 -19
-39 -6 -27 17 6 41 57 41 25 0 42 -3 38 -7z"/>
<path d="M2536 5777 c-12 -26 -1 -126 18 -162 9 -16 16 -45 16 -63 0 -39 32
-107 38 -80 2 10 -3 32 -11 50 -24 57 -39 120 -46 198 -5 52 -9 69 -15 57z"/>
<path d="M2621 5420 c-1 -20 8 -48 19 -65 11 -16 34 -58 51 -91 17 -34 44 -74
60 -90 16 -15 29 -33 29 -40 0 -11 116 -134 153 -162 38 -28 3 31 -48 83 -72
72 -113 121 -130 156 -10 19 -28 48 -40 64 -12 17 -30 50 -40 75 -10 25 -24
52 -31 60 -6 8 -14 22 -17 30 -3 8 -6 -1 -6 -20z"/>
<path d="M2962 4951 c2 -7 7 -12 11 -12 12 1 9 15 -3 20 -7 2 -11 -2 -8 -8z"/>
<path d="M3020 4904 c0 -12 77 -74 92 -74 9 0 18 -3 20 -7 11 -27 163 -109
218 -119 32 -5 33 -4 14 8 -38 24 -189 103 -204 107 -8 2 -34 20 -57 41 -38
33 -83 57 -83 44z"/>
<path d="M3461 4656 c11 -9 69 -14 69 -6 0 6 -16 10 -37 10 -20 0 -34 -2 -32
-4z"/>
<path d="M3570 4630 c0 -5 17 -10 38 -9 33 1 34 2 12 9 -36 11 -50 11 -50 0z"/>
</g>
</svg>
